<svg width="530" height="246" xmlns="http://www.w3.org/2000/svg" xmlns:xlink="http://www.w3.org/1999/xlink" xml:space="preserve" overflow="hidden"><defs><clipPath id="clip0"><rect x="3097" y="2199" width="530" height="246"/></clipPath></defs><g clip-path="url(#clip0)" transform="translate(-3097 -2199)"><path d="M3505.07 2201.37C3435.2 2186.97 3260.05 2241.87 3192.05 2266.18 3124.04 2290.48 3096.09 2318.38 3097.02 2347.18 3097.95 2375.98 3111.93 2438.09 3197.64 2438.99 3283.34 2439.89 3559.1 2389.48 3611.27 2352.58 3663.44 2315.68 3574.94 2215.77 3505.07 2201.37Z" fill="#C9E5ED" fill-rule="evenodd"/><path d="M3505.98 2207.37C3438.35 2192.97 3268.82 2247.87 3203 2272.18 3137.17 2296.48 3110.12 2324.38 3111.02 2353.18 3111.92 2381.98 3125.45 2444.09 3208.41 2444.99 3291.37 2445.89 3558.28 2395.49 3608.77 2358.58 3659.27 2321.68 3573.61 2221.77 3505.98 2207.37Z" fill="#2D4336" fill-rule="evenodd"/></g></svg>