<svg width="364" height="547" xmlns="http://www.w3.org/2000/svg" xmlns:xlink="http://www.w3.org/1999/xlink" xml:space="preserve" overflow="hidden"><defs><clipPath id="clip0"><rect x="4045" y="1219" width="364" height="547"/></clipPath></defs><g clip-path="url(#clip0)" transform="translate(-4045 -1219)"><path d="M4250.75 1287.67C4206.25 1213.36 4174.94 1228.23 4141.98 1223.27 4109.02 1218.32 4064.53 1208.41 4052.99 1257.95 4041.45 1307.49 4038.16 1437.12 4072.77 1520.51 4107.37 1603.9 4204.6 1733.53 4260.64 1758.3 4316.67 1783.06 4411.42 1746.74 4408.95 1669.12 4406.48 1591.51 4295.24 1361.98 4250.75 1287.67Z" fill="#C9E5ED" fill-rule="evenodd"/><path d="M4262.49 1301.53C4221.29 1232.79 4192.3 1246.54 4161.79 1241.95 4131.27 1237.37 4090.08 1228.2 4079.4 1274.03 4068.72 1319.86 4065.67 1439.77 4097.71 1516.91 4129.75 1594.05 4219.77 1713.96 4271.64 1736.87 4323.52 1759.79 4411.25 1726.18 4408.96 1654.39 4406.67 1582.59 4303.68 1370.27 4262.49 1301.53Z" fill="#6F7762" fill-rule="evenodd"/></g></svg>