<svg width="414" height="392" xmlns="http://www.w3.org/2000/svg" xmlns:xlink="http://www.w3.org/1999/xlink" xml:space="preserve" overflow="hidden"><defs><clipPath id="clip0"><rect x="3374" y="826" width="414" height="392"/></clipPath></defs><g clip-path="url(#clip0)" transform="translate(-3374 -826)"><path d="M3580.37 895.767C3528.01 872.253 3464.25 804.952 3430.1 832.521 3395.95 860.09 3367.11 1001.18 3375.45 1061.18 3383.8 1121.18 3414.92 1169.84 3480.19 1192.54 3545.46 1215.24 3723.06 1233.89 3767.08 1197.4 3811.1 1160.92 3776.95 1025.5 3744.31 973.609 3711.67 921.714 3632.74 919.282 3580.37 895.767Z" fill="#C9E5ED" fill-rule="evenodd"/><path d="M3579.91 910.182C3530.71 888.887 3470.8 827.938 3438.71 852.905 3406.62 877.872 3379.52 1005.64 3387.37 1059.98 3395.21 1114.32 3424.45 1158.38 3485.78 1178.94 3547.11 1199.5 3713.98 1216.39 3755.34 1183.35 3796.7 1150.3 3764.61 1027.67 3733.95 980.677 3703.28 933.68 3629.12 931.477 3579.91 910.182Z" fill="#548C2F" fill-rule="evenodd"/></g></svg>