<svg width="247" height="323" xmlns="http://www.w3.org/2000/svg" xmlns:xlink="http://www.w3.org/1999/xlink" xml:space="preserve" overflow="hidden"><defs><clipPath id="clip0"><rect x="2732" y="2066" width="247" height="323"/></clipPath></defs><g clip-path="url(#clip0)" transform="translate(-2732 -2066)"><path d="M2863.54 2122.97C2828.22 2076.56 2787.77 2053.97 2765.93 2072.45 2744.1 2090.93 2728.9 2182.94 2732.54 2233.88 2736.18 2284.81 2746.88 2358.54 2787.77 2378.06 2828.65 2397.57 2965.43 2392.43 2977.85 2350.95 2990.27 2309.46 2898.86 2169.39 2863.54 2122.97Z" fill="#C9E5ED" fill-rule="evenodd"/><path d="M2858.7 2128.92C2827.09 2085.81 2790.9 2064.82 2771.36 2081.99 2751.82 2099.16 2738.23 2184.62 2741.48 2231.92 2744.74 2279.23 2754.31 2347.71 2790.9 2365.83 2827.48 2383.96 2949.86 2379.19 2960.97 2340.65 2972.08 2302.12 2890.3 2172.03 2858.7 2128.92Z" fill="#99CC00" fill-rule="evenodd"/></g></svg>