<svg width="425" height="794" xmlns="http://www.w3.org/2000/svg" xmlns:xlink="http://www.w3.org/1999/xlink" xml:space="preserve" overflow="hidden"><defs><clipPath id="clip0"><rect x="3620" y="1282" width="425" height="794"/></clipPath></defs><g clip-path="url(#clip0)" transform="translate(-3620 -1282)"><path d="M3662.38 1285.81C3609.65 1287.52 3610.54 1326.93 3640.93 1383.47 3671.32 1440.01 3842.03 1538.53 3844.71 1625.06 3847.4 1711.59 3675.79 1829.81 3657.02 1902.63 3638.25 1975.45 3669.53 2047.41 3732.1 2061.97 3794.66 2076.54 3994.87 2104.81 4032.41 1990.01 4069.95 1875.22 4017.22 1488.85 3957.33 1373.19 3897.45 1257.54 3715.11 1284.1 3662.38 1285.81Z" fill="#C9E5ED" fill-rule="evenodd"/><path d="M3684.89 1294.69C3635.25 1296.36 3636.1 1334.57 3664.7 1389.41 3693.3 1444.24 3853.97 1539.78 3856.5 1623.69 3859.02 1707.6 3697.5 1822.25 3679.84 1892.87 3662.17 1963.49 3691.62 2033.28 3750.5 2047.4 3809.39 2061.52 3997.82 2088.94 4033.15 1977.61 4068.48 1866.28 4018.85 1491.59 3962.49 1379.44 3906.13 1267.28 3734.52 1293.03 3684.89 1294.69Z" fill="#05A869" fill-rule="evenodd"/></g></svg>