<svg width="598" height="741" xmlns="http://www.w3.org/2000/svg" xmlns:xlink="http://www.w3.org/1999/xlink" xml:space="preserve" overflow="hidden"><defs><clipPath id="clip0"><rect x="2107" y="1521" width="598" height="741"/></clipPath></defs><g clip-path="url(#clip0)" transform="translate(-2107 -1521)"><path d="M2344.12 1717.52C2319.49 1652.97 2340.83 1591.82 2309.6 1563.42 2278.36 1535.02 2189.82 1493.17 2156.71 1547.14 2123.6 1601.1 2096.62 1788 2110.92 1887.18 2125.23 1986.36 2154.8 2079.87 2242.55 2142.21 2330.31 2204.56 2565.42 2269.86 2637.44 2261.23 2709.47 2252.6 2727.15 2132.01 2674.69 2090.45 2622.23 2048.89 2512.43 2012.83 2457.33 1950.68 2402.24 1888.52 2368.74 1782.06 2344.12 1717.52Z" fill="#C9E5ED" fill-rule="evenodd"/><path d="M2341.03 1725.77C2317.77 1664.1 2337.93 1605.66 2308.42 1578.53 2278.91 1551.4 2195.25 1511.41 2163.97 1562.97 2132.68 1614.53 2107.19 1793.11 2120.71 1887.87 2134.23 1982.64 2162.16 2071.98 2245.07 2131.55 2327.98 2191.11 2550.12 2253.51 2618.17 2245.26 2686.22 2237.02 2702.93 2121.8 2653.36 2082.09 2603.8 2042.38 2500.05 2007.93 2448 1948.54 2395.94 1889.15 2364.29 1787.44 2341.03 1725.77Z" fill="#6F7762" fill-rule="evenodd"/></g></svg>