<svg width="350" height="220" xmlns="http://www.w3.org/2000/svg"
     xml:space="preserve" overflow="hidden"><defs><clipPath id="clip0"><rect x="2960" y="1342" width="350" height="220"/></clipPath></defs>
    <g clip-path="url(#clip0)" transform="translate(-2960 -1342)"><path d="M3057.34 1345.22C3014.15 1354.77 2976.65 1390.89 2966.14 1422.95 2955.64 1455.01 2954.88 1515.61 2994.31 1537.58 3033.75 1559.56 3150.17 1570.06 3202.75 1554.78 3255.33 1539.49 3306.03 1477.4 3309.79 1445.88 3313.54 1414.35 3267.36 1382.41 3225.28 1365.63 3183.21 1348.86 3100.53 1335.66 3057.34 1345.22Z" fill="#C9E5ED" fill-rule="evenodd"/>
        <path d="M3060.38 1353.94C3020.28 1362.67 2985.46 1395.67 2975.7 1424.96 2965.95 1454.25 2965.24 1509.62 3001.86 1529.69 3038.48 1549.77 3146.59 1559.37 3195.41 1545.4 3244.23 1531.44 3291.31 1474.71 3294.8 1445.91 3298.29 1417.1 3255.4 1387.92 3216.33 1372.59 3177.26 1357.27 3100.49 1345.21 3060.38 1353.94Z"
              fill="#548C2F" fill-rule="evenodd"/></g></svg>