<svg width="735" height="668" xmlns="http://www.w3.org/2000/svg" xmlns:xlink="http://www.w3.org/1999/xlink" xml:space="preserve" overflow="hidden"><defs><clipPath id="clip0"><rect x="2107" y="437" width="735" height="668"/></clipPath></defs><g clip-path="url(#clip0)" transform="translate(-2107 -437)"><path d="M2513.26 752.187C2437.23 749.405 2413.15 749.405 2377.26 780.005 2341.38 810.605 2325.32 882.932 2297.94 935.787 2270.55 988.642 2244.1 1079.52 2212.94 1097.13 2181.77 1114.75 2121.81 1105.48 2110.95 1041.5 2100.08 977.515 2111.42 806.432 2147.78 713.241 2184.14 620.05 2234.19 523.613 2329.1 482.349 2424.01 441.085 2633.19 413.267 2717.25 465.658 2801.3 518.049 2865.99 749.868 2833.41 796.696 2800.82 843.523 2589.28 754.968 2513.26 752.187Z" fill="#C9E5ED" fill-rule="evenodd"/><path d="M2510.83 739.461C2439.57 736.941 2416.99 736.941 2383.35 764.656 2349.71 792.37 2334.66 857.876 2308.99 905.746 2283.31 953.616 2258.52 1035.92 2229.31 1051.88 2200.09 1067.83 2143.88 1059.43 2133.7 1001.49 2123.52 943.538 2134.14 788.591 2168.22 704.188 2202.31 619.786 2249.23 532.445 2338.2 495.072 2427.17 457.7 2623.26 432.506 2702.05 479.956 2780.84 527.406 2841.49 737.361 2810.94 779.772 2780.4 822.184 2582.1 741.98 2510.83 739.461Z" fill="#68B764" fill-rule="evenodd"/></g></svg>