<svg width="942" height="605" xmlns="http://www.w3.org/2000/svg" xmlns:xlink="http://www.w3.org/1999/xlink" xml:space="preserve" overflow="hidden"><defs><clipPath id="clip0"><rect x="2766" y="-48" width="942" height="605"/></clipPath></defs><g clip-path="url(#clip0)" transform="translate(-2766 48)"><path d="M2930.26-15.4027C2843.28 30.7479 2841.35 165.272 2814.29 237.935 2787.23 310.597 2758.24 377.368 2767.9 420.573 2777.56 463.778 2811.39 475.561 2872.28 497.163 2933.16 518.766 3060.73 576.699 3133.21 550.187 3205.7 523.675 3214.39 373.441 3307.17 338.091 3399.95 302.742 3638.66 381.296 3689.88 338.091 3741.1 294.886 3673.45 141.705 3614.5 78.862 3555.54 16.0187 3450.2-23.2582 3336.16-38.9691 3222.12-54.68 2991.15-51.7339 2930.26-15.4027Z" fill="#C9E5ED" fill-rule="evenodd"/><path d="M2937.28-11.0426C2856.11 31.3701 2854.31 154.999 2829.06 221.776 2803.81 288.554 2776.76 349.917 2785.77 389.622 2794.79 429.328 2826.35 440.157 2883.17 460.01 2939.98 479.862 3059.02 533.104 3126.65 508.739 3194.29 484.374 3202.41 346.307 3288.98 313.821 3375.55 281.335 3598.3 353.527 3646.09 313.821 3693.89 274.115 3630.76 133.341 3575.75 75.5875 3520.74 17.834 3422.44-18.2619 3316.03-32.7003 3209.62-47.1388 2994.09-44.4313 2937.28-11.0426Z" fill="#175639" fill-rule="evenodd"/></g></svg>