<svg width="580" height="780" xmlns="http://www.w3.org/2000/svg" xmlns:xlink="http://www.w3.org/1999/xlink" xml:space="preserve" overflow="hidden"><defs><clipPath id="clip0"><rect x="2100" y="1494" width="580" height="780"/></clipPath></defs><g clip-path="url(#clip0)" transform="translate(-2100 -1494)"><path d="M2287.21 1720.05C2276.99 1638.53 2271.42 1557.01 2248.18 1525.59 2224.95 1494.16 2171.98 1471.57 2147.82 1531.48 2123.66 1591.39 2089.28 1781.93 2103.22 1885.05 2117.16 1988.18 2145.97 2085.41 2231.46 2150.24 2316.95 2215.06 2546.48 2274.97 2616.17 2273.99 2685.87 2273.01 2700.73 2187.56 2649.62 2144.34 2598.52 2101.13 2369.92 2085.41 2309.52 2014.7 2249.11 1943.98 2297.43 1801.57 2287.21 1720.05Z" fill="#C9E5ED" fill-rule="evenodd"/><path d="M2299.4 1736.5C2289.5 1661.67 2284.1 1586.84 2261.59 1557.99 2239.07 1529.14 2187.75 1508.41 2164.34 1563.4 2140.93 1618.4 2107.61 1793.3 2121.12 1887.97 2134.63 1982.63 2162.54 2071.89 2245.38 2131.39 2328.22 2190.9 2550.62 2245.89 2618.15 2244.99 2685.68 2244.09 2700.09 2165.65 2650.57 2125.98 2601.04 2086.31 2379.54 2071.89 2321.01 2006.98 2262.49 1942.06 2309.31 1811.33 2299.4 1736.5Z" fill="#6F7762" fill-rule="evenodd"/></g></svg>