<svg width="626" height="927" xmlns="http://www.w3.org/2000/svg" xmlns:xlink="http://www.w3.org/1999/xlink" xml:space="preserve" overflow="hidden"><defs><clipPath id="clip0"><rect x="3811" y="248" width="626" height="927"/></clipPath></defs><g clip-path="url(#clip0)" transform="translate(-3811 -248)"><path d="M4053.23 268.326C3966.9 216.397 3909.92 273.319 3871.94 334.235 3833.95 395.151 3826.18 501.006 3825.32 633.823 3824.45 766.64 3774.38 1054.24 3866.76 1131.14 3959.13 1208.03 4292.36 1176.08 4379.56 1095.19 4466.75 1014.3 4441.71 782.617 4389.91 645.806 4338.12 508.995 4139.56 320.255 4053.23 268.326Z" fill="#C9E5ED" fill-rule="evenodd"/><path d="M4052.85 312.506C3970.93 265.227 3916.86 317.052 3880.82 372.514 3844.78 427.976 3837.4 524.353 3836.58 645.278 3835.77 766.203 3788.25 1028.06 3875.91 1098.06 3963.56 1168.07 4279.76 1138.98 4362.49 1065.33 4445.23 991.687 4421.47 780.75 4372.32 656.188 4323.17 531.626 4134.76 359.785 4052.85 312.506Z" fill="#6F7762" fill-rule="evenodd"/></g></svg>