<svg width="517" height="145" xmlns="http://www.w3.org/2000/svg" xmlns:xlink="http://www.w3.org/1999/xlink" xml:space="preserve" overflow="hidden"><defs><clipPath id="clip0"><rect x="2857" y="617" width="517" height="145"/></clipPath></defs><g clip-path="url(#clip0)" transform="translate(-2857 -617)"><path d="M3278.86 630.893C3205.99 615.095 2972.64 609.829 2910.41 630.893 2848.18 651.956 2832.62 741.476 2905.49 757.274 2978.37 773.072 3285.41 745.865 3347.64 725.679 3409.87 705.493 3351.73 646.69 3278.86 630.893Z" fill="#C9E5ED" fill-rule="evenodd"/><path d="M3268.12 637.072C3200.04 623.344 2982.03 618.768 2923.89 637.072 2865.76 655.376 2851.23 733.166 2919.31 746.893 2987.38 760.621 3274.24 736.979 3332.37 719.438 3390.51 701.897 3336.2 650.8 3268.12 637.072Z" fill="#4C4B16" fill-rule="evenodd"/></g></svg>