<svg viewBox="0 0 300 300">
    <g transform="translate(0,0) scale(1 1)">
    <polygon points="75,40 0,100, 0,250  150,250 150,100 " stroke="#d8c192" fill="#d8c192"/>
    <polygon points="150,250 150,100 225,50, 225,200 " stroke="#d8c192" fill="#d8c192"/>
    <polygon points="231,55, 155,105 75,40 150,-5" fill="#c9400a"/>
    <polygon points="231,55, 155,10 " fill="#c9400a"/>
    <polygon points="77,40, -3,101 " stroke="#c9400a" stroke-width="3" fill="none"/>

    <svg>
    <g transform="translate(-10,210) scale(0.3 0.3)">
    <path fill="#2e20c7" d="M52.65,125.2h19.9c3.3,0,6-2.7,6-6V86.301h3.399c3.301,0,6-2.701,6-6V43.2c0-3.3-2.699-6-6-6H43.25c-3.3,0-6,2.7-6,6
		v37.101c0,3.299,2.7,6,6,6h3.4V119.2C46.65,122.5,49.25,125.2,52.65,125.2z"/>
	<circle fill="#2e20c7" cx="62.55" cy="15.7" r="15.7"/>
    </svg>

    <svg>
    <g transform="translate(11,210) scale(0.3 0.3)">
    <path fill="#2e20c7" d="M52.65,125.2h19.9c3.3,0,6-2.7,6-6V86.301h3.399c3.301,0,6-2.701,6-6V43.2c0-3.3-2.699-6-6-6H43.25c-3.3,0-6,2.7-6,6
		v37.101c0,3.299,2.7,6,6,6h3.4V119.2C46.65,122.5,49.25,125.2,52.65,125.2z"/>
	<circle fill="#2e20c7" cx="62.55" cy="15.7" r="15.7"/>
    </svg>
    
    <svg>
    <g transform="translate(32,210) scale(0.3 0.3)">
    <path fill="#2e20c7" d="M52.65,125.2h19.9c3.3,0,6-2.7,6-6V86.301h3.399c3.301,0,6-2.701,6-6V43.2c0-3.3-2.699-6-6-6H43.25c-3.3,0-6,2.7-6,6
		v37.101c0,3.299,2.7,6,6,6h3.4V119.2C46.65,122.5,49.25,125.2,52.65,125.2z"/>
	<circle fill="#2e20c7" cx="62.55" cy="15.7" r="15.7"/>
    </svg>
    
    <svg>
    <g transform="translate(53,210) scale(0.3 0.3)">
    <path fill="#0fe2e5" d="M52.65,125.2h19.9c3.3,0,6-2.7,6-6V86.301h3.399c3.301,0,6-2.701,6-6V43.2c0-3.3-2.699-6-6-6H43.25c-3.3,0-6,2.7-6,6
		v37.101c0,3.299,2.7,6,6,6h3.4V119.2C46.65,122.5,49.25,125.2,52.65,125.2z"/>
	<circle fill="#0fe2e5" cx="62.55" cy="15.7" r="15.7"/>
    </svg>

    <svg>
    <g transform="translate(74,210) scale(0.3 0.3)">
    <path fill="#0fe2e5" d="M52.65,125.2h19.9c3.3,0,6-2.7,6-6V86.301h3.399c3.301,0,6-2.701,6-6V43.2c0-3.3-2.699-6-6-6H43.25c-3.3,0-6,2.7-6,6
		v37.101c0,3.299,2.7,6,6,6h3.4V119.2C46.65,122.5,49.25,125.2,52.65,125.2z"/>
	<circle fill="#0fe2e5" cx="62.55" cy="15.7" r="15.7"/>
    </svg>

    <svg>
    <g transform="translate(95,210) scale(0.3 0.3)">
    <path fill="#0fe2e5" d="M52.65,125.2h19.9c3.3,0,6-2.7,6-6V86.301h3.399c3.301,0,6-2.701,6-6V43.2c0-3.3-2.699-6-6-6H43.25c-3.3,0-6,2.7-6,6
		v37.101c0,3.299,2.7,6,6,6h3.4V119.2C46.65,122.5,49.25,125.2,52.65,125.2z"/>
	<circle fill="#0fe2e5" cx="62.55" cy="15.7" r="15.7"/>
    </svg>

    <svg>
    <g transform="translate(116,210) scale(0.3 0.3)">
    <path fill="#0fe2e5" d="M52.65,125.2h19.9c3.3,0,6-2.7,6-6V86.301h3.399c3.301,0,6-2.701,6-6V43.2c0-3.3-2.699-6-6-6H43.25c-3.3,0-6,2.7-6,6
		v37.101c0,3.299,2.7,6,6,6h3.4V119.2C46.65,122.5,49.25,125.2,52.65,125.2z"/>
	<circle fill="#0fe2e5" cx="62.55" cy="15.7" r="15.7"/>
    </svg>

    <svg>
        <g transform="translate(145,85) scale(0.3 0.4)">
        <polygon points="100,125, 50,150 50,50 100,25 " fill="#25c214"/>
        <polygon points="100,125, 50,150 50,50 100,25 " stroke="#000000" stroke-width="4" fill="none"/>
        <polygon points="75,136, 75,37 " stroke="#000000" stroke-width="4" fill="none"/>
        <polygon points="100,80, 50,105 " stroke="#000000" stroke-width="4" fill="none"/>
    </svg>

    <svg>
        <g transform="translate(166,71) scale(0.3 0.4)">
        <polygon points="100,125, 50,150 50,50 100,25 " fill="#f20505"/>
        <polygon points="100,125, 50,150 50,50 100,25 " stroke="#000000" stroke-width="4" fill="none"/>
        <polygon points="75,136, 75,37 " stroke="#000000" stroke-width="4" fill="none"/>
        <polygon points="100,80, 50,105 " stroke="#000000" stroke-width="4" fill="none"/>
    </svg>

    <svg>
        <g transform="translate(187,57) scale(0.3 0.4)">
        <polygon points="100,125, 50,150 50,50 100,25 " fill="#1414c2"/>
        <polygon points="100,125, 50,150 50,50 100,25 " stroke="#000000" stroke-width="4" fill="none"/>
        <polygon points="75,136, 75,37 " stroke="#000000" stroke-width="4" fill="none"/>
        <polygon points="100,80, 50,105 " stroke="#000000" stroke-width="4" fill="none"/>
    </svg>
    <svg>
        <g transform="translate(145,130) scale(0.3 0.4)">
        <polygon points="100,125, 50,150 50,50 100,25 " fill="#14bcc2"/>
        <polygon points="100,125, 50,150 50,50 100,25 " stroke="#000000" stroke-width="4" fill="none"/>
        <polygon points="75,136, 75,37 " stroke="#000000" stroke-width="4" fill="none"/>
        <polygon points="100,80, 50,105 " stroke="#000000" stroke-width="4" fill="none"/>
    </svg>

    <svg>
        <g transform="translate(166,116) scale(0.3 0.4)">
        <polygon points="100,125, 50,150 50,50 100,25 " fill="#c705f2"/>
        <polygon points="100,125, 50,150 50,50 100,25 " stroke="#000000" stroke-width="4" fill="none"/>
        <polygon points="75,136, 75,37 " stroke="#000000" stroke-width="4" fill="none"/>
        <polygon points="100,80, 50,105 " stroke="#000000" stroke-width="4" fill="none"/>
    </svg>

    <svg>
        <g transform="translate(187,102) scale(0.3 0.4)">
        <polygon points="100,125, 50,150 50,50 100,25 " fill="#14c257"/>
        <polygon points="100,125, 50,150 50,50 100,25 " stroke="#000000" stroke-width="4" fill="none"/>
        <polygon points="75,136, 75,37 " stroke="#000000" stroke-width="4" fill="none"/>
        <polygon points="100,80, 50,105 " stroke="#000000" stroke-width="4" fill="none"/>
    </svg>

    <svg>
        <g transform="translate(145,175) scale(0.3 0.4)">
        <polygon points="100,125, 50,150 50,50 100,25 " fill="#c21488"/>
        <polygon points="100,125, 50,150 50,50 100,25 " stroke="#000000" stroke-width="4" fill="none"/>
        <polygon points="75,136, 75,37 " stroke="#000000" stroke-width="4" fill="none"/>
        <polygon points="100,80, 50,105 " stroke="#000000" stroke-width="4" fill="none"/>
    </svg>

    <svg>
        <g transform="translate(166,161) scale(0.3 0.4)">
        <polygon points="100,125, 50,150 50,50 100,25 " fill="#f27f05"/>
        <polygon points="100,125, 50,150 50,50 100,25 " stroke="#000000" stroke-width="4" fill="none"/>
        <polygon points="75,136, 75,37 " stroke="#000000" stroke-width="4" fill="none"/>
        <polygon points="100,80, 50,105 " stroke="#000000" stroke-width="4" fill="none"/>
    </svg>

    <svg>
        <g transform="translate(187,147) scale(0.3 0.4)">
        <polygon points="100,125, 50,150 50,50 100,25 " fill="#9e6a6e"/>
        <polygon points="100,125, 50,150 50,50 100,25 " stroke="#000000" stroke-width="4" fill="none"/>
        <polygon points="75,136, 75,37 " stroke="#000000" stroke-width="4" fill="none"/>
        <polygon points="100,80, 50,105 " stroke="#000000" stroke-width="4" fill="none"/>
    </svg>

    <svg>
        <rect x = "-30" y="200" width="40" height="25" rx="3" fill="brown"/>
        <rect x = "-12" y="200" width="4" height="70" fill="brown"/>
    </svg>

    <g transform="translate(75, 47) scale(2 2)">
    <path d="M8 3.5a.5.5 0 0 0-1 0V9a.5.5 0 0 0 .252.434l3.5 2a.5.5 0 0 0 .496-.868L8 8.71V3.5z"/> <path d="M8 16A8 8 0 1 0 8 0a8 8 0 0 0 0 16zm7-8A7 7 0 1 1 1 8a7 7 0 0 1 14 0z"/> 
    </g>


    <text x="10" y="115" font-size="13" stroke="#000" stroke-width="0.75px" stroke-linejoin="round">Twilight Imperium:</text> -->
    <text x="22" y="130" font-size="13" stroke="#000" stroke-width="0.75px" stroke-linejoin="round">Fourth Edition</text> -->
    <text x="-18" y="217" font-size="15" stroke="#000" stroke-width="0.75px" stroke-linejoin="round">81</text> -->
    <text x="40" y="150" font-size="10" stroke="#000" stroke-width="0.75px" stroke-linejoin="round">60 - 120 mins</text> -->
    
</svg>