<svg viewBox="0 0 300 300">
    <g transform="translate(0,0) scale(1 1)">
    <polygon points="75,40 0,100, 0,250  150,250 150,100 " stroke="#d8c192" fill="#d8c192"/>
    <polygon points="150,250 150,100 225,50, 225,200 " stroke="#97835b" fill="#97835b"/>
    <polygon points="231,55, 155,105 75,40 150,-5" fill="#c9400a"/>
    <polygon points="231,55, 155,10 " fill="#c9400a"/>
    <polygon points="77,40, -3,101 " stroke="#c9400a" stroke-width="3" fill="none"/>


    
    <g transform="translate(0,0) scale(1 1)">
    <polygon points="75,40 0,100, 0,175  150,175 150,100 " stroke="#62e729" fill="#62e729"/>
    <polygon points="150,175 150,100 225,50, 225,125 " stroke="#655b97" fill="#655b97"/>
    <polygon points="231,55, 155,105 75,40 150,-5" fill="#c9400a"/>
    <polygon points="231,55, 155,10 " fill="#c9400a"/>
    <polygon points="77,40, -3,101 " stroke="#c9400a" stroke-width="3" fill="none"/>


    <svg>
    <g transform="translate(-10,210) scale(0.3 0.3)">
    <path fill="#211f1a" d="M52.65,125.2h19.9c3.3,0,6-2.7,6-6V86.301h3.399c3.301,0,6-2.701,6-6V43.2c0-3.3-2.699-6-6-6H43.25c-3.3,0-6,2.7-6,6
		v37.101c0,3.299,2.7,6,6,6h3.4V119.2C46.65,122.5,49.25,125.2,52.65,125.2z"/>
	<circle fill="#2e20c7" cx="62.55" cy="15.7" r="15.7"/>
    </svg>

    <svg>
    <g transform="translate(11,210) scale(0.3 0.3)">
    <path fill="#2e20c7" d="M52.65,125.2h19.9c3.3,0,6-2.7,6-6V86.301h3.399c3.301,0,6-2.701,6-6V43.2c0-3.3-2.699-6-6-6H43.25c-3.3,0-6,2.7-6,6
		v37.101c0,3.299,2.7,6,6,6h3.4V119.2C46.65,122.5,49.25,125.2,52.65,125.2z"/>
	<circle fill="#2e20c7" cx="62.55" cy="15.7" r="15.7"/>
    </svg>
    
    <svg>
    <g transform="translate(32,210) scale(0.3 0.3)">
    <path fill="#2e20c7" d="M52.65,125.2h19.9c3.3,0,6-2.7,6-6V86.301h3.399c3.301,0,6-2.701,6-6V43.2c0-3.3-2.699-6-6-6H43.25c-3.3,0-6,2.7-6,6
		v37.101c0,3.299,2.7,6,6,6h3.4V119.2C46.65,122.5,49.25,125.2,52.65,125.2z"/>
	<circle fill="#2e20c7" cx="62.55" cy="15.7" r="15.7"/>
    </svg>
    
    <svg>
    <g transform="translate(53,210) scale(0.3 0.3)">
    <path fill="#725e30" d="M52.65,125.2h19.9c3.3,0,6-2.7,6-6V86.301h3.399c3.301,0,6-2.701,6-6V43.2c0-3.3-2.699-6-6-6H43.25c-3.3,0-6,2.7-6,6
		v37.101c0,3.299,2.7,6,6,6h3.4V119.2C46.65,122.5,49.25,125.2,52.65,125.2z"/>
	<circle fill="#0fe2e5" cx="62.55" cy="15.7" r="15.7"/>
    </svg>

    <svg>
    <g transform="translate(74,210) scale(0.3 0.3)">
    <path fill="#0fe2e5" d="M52.65,125.2h19.9c3.3,0,6-2.7,6-6V86.301h3.399c3.301,0,6-2.701,6-6V43.2c0-3.3-2.699-6-6-6H43.25c-3.3,0-6,2.7-6,6
		v37.101c0,3.299,2.7,6,6,6h3.4V119.2C46.65,122.5,49.25,125.2,52.65,125.2z"/>
	<circle fill="#0fe2e5" cx="62.55" cy="15.7" r="15.7"/>
    </svg>

    <svg>
    <g transform="translate(95,210) scale(0.3 0.3)">
    <path fill="#0fe2e5" d="M52.65,125.2h19.9c3.3,0,6-2.7,6-6V86.301h3.399c3.301,0,6-2.701,6-6V43.2c0-3.3-2.699-6-6-6H43.25c-3.3,0-6,2.7-6,6
		v37.101c0,3.299,2.7,6,6,6h3.4V119.2C46.65,122.5,49.25,125.2,52.65,125.2z"/>
	<circle fill="#0fe2e5" cx="62.55" cy="15.7" r="15.7"/>
    </svg>

    <svg>
    <g transform="translate(116,210) scale(0.3 0.3)">
    <path fill="#0fe2e5" d="M52.65,125.2h19.9c3.3,0,6-2.7,6-6V86.301h3.399c3.301,0,6-2.701,6-6V43.2c0-3.3-2.699-6-6-6H43.25c-3.3,0-6,2.7-6,6
		v37.101c0,3.299,2.7,6,6,6h3.4V119.2C46.65,122.5,49.25,125.2,52.65,125.2z"/>
	<circle fill="#0fe2e5" cx="62.55" cy="15.7" r="15.7"/>
    </svg>

    <!-- POWER POINT GUY -->

    <g transform="translate(-7 211) scale(0.4 0.4)">
        <g transform="translate(-1166 -158) scale(1 1)">
            <path fill="#c7208f" d="M1222 169C1222 173.418 1218.42 177 1214 177 1209.58 177 1206 173.418 1206 169 1206 164.582 1209.58 161 1214 161 1218.42 161 1222 164.582 1222 169Z"/>
            <path fill="#c7208f" d="M1235.8 210.2 1230.2 186.4C1230 185.6 1229.6 184.8 1229 184.2 1226.6 182.2 1223.8 180.8 1220.6 179.8 1218.4 179.4 1216.2 179 1214 179 1211.8 179 1209.6 179.4 1207.4 180 1204.2 180.8 1201.4 182.4 1199 184.4 1198.4 185 1198 185.8 1197.8 186.6L1192.2 210.4C1192.2 210.6 1192 211 1192 211.4 1192 213.6 1193.8 215.4 1196 215.4 1197.8 215.4 1199.4 214 1199.8 212.4L1204 195 1204 251 1212 251 1212 215 1216 215 1216 251 1224 251 1224 194.8 1228.2 212.2C1228.6 213.8 1230.2 215.2 1232 215.2 1234.2 215.2 1236 213.4 1236 211.2 1236 210.8 1235.8 210.4 1235.8 210.2Z"/>
        </g>
    </g>

    <g transform="translate(14 211) scale(0.4 0.4)">
        <g transform="translate(-1166 -158) scale(1 1)">
            <path fill="#c72020" d="M1222 169C1222 173.418 1218.42 177 1214 177 1209.58 177 1206 173.418 1206 169 1206 164.582 1209.58 161 1214 161 1218.42 161 1222 164.582 1222 169Z"/>
            <path fill="#c72020" d="M1235.8 210.2 1230.2 186.4C1230 185.6 1229.6 184.8 1229 184.2 1226.6 182.2 1223.8 180.8 1220.6 179.8 1218.4 179.4 1216.2 179 1214 179 1211.8 179 1209.6 179.4 1207.4 180 1204.2 180.8 1201.4 182.4 1199 184.4 1198.4 185 1198 185.8 1197.8 186.6L1192.2 210.4C1192.2 210.6 1192 211 1192 211.4 1192 213.6 1193.8 215.4 1196 215.4 1197.8 215.4 1199.4 214 1199.8 212.4L1204 195 1204 251 1212 251 1212 215 1216 215 1216 251 1224 251 1224 194.8 1228.2 212.2C1228.6 213.8 1230.2 215.2 1232 215.2 1234.2 215.2 1236 213.4 1236 211.2 1236 210.8 1235.8 210.4 1235.8 210.2Z"/>
        </g>
    </g>

    <g transform="translate(35 211) scale(0.4 0.4)">
        <g transform="translate(-1166 -158) scale(1 1)">
            <path fill="#c72020" d="M1222 169C1222 173.418 1218.42 177 1214 177 1209.58 177 1206 173.418 1206 169 1206 164.582 1209.58 161 1214 161 1218.42 161 1222 164.582 1222 169Z"/>
            <path fill="#c72020" d="M1235.8 210.2 1230.2 186.4C1230 185.6 1229.6 184.8 1229 184.2 1226.6 182.2 1223.8 180.8 1220.6 179.8 1218.4 179.4 1216.2 179 1214 179 1211.8 179 1209.6 179.4 1207.4 180 1204.2 180.8 1201.4 182.4 1199 184.4 1198.4 185 1198 185.8 1197.8 186.6L1192.2 210.4C1192.2 210.6 1192 211 1192 211.4 1192 213.6 1193.8 215.4 1196 215.4 1197.8 215.4 1199.4 214 1199.8 212.4L1204 195 1204 251 1212 251 1212 215 1216 215 1216 251 1224 251 1224 194.8 1228.2 212.2C1228.6 213.8 1230.2 215.2 1232 215.2 1234.2 215.2 1236 213.4 1236 211.2 1236 210.8 1235.8 210.4 1235.8 210.2Z"/>
        </g>
    </g>
    <g transform="translate(56 211) scale(0.4 0.4)">
        <g transform="translate(-1166 -158) scale(1 1)">
            <path fill="#c72020" d="M1222 169C1222 173.418 1218.42 177 1214 177 1209.58 177 1206 173.418 1206 169 1206 164.582 1209.58 161 1214 161 1218.42 161 1222 164.582 1222 169Z"/>
            <path fill="#c72020" d="M1235.8 210.2 1230.2 186.4C1230 185.6 1229.6 184.8 1229 184.2 1226.6 182.2 1223.8 180.8 1220.6 179.8 1218.4 179.4 1216.2 179 1214 179 1211.8 179 1209.6 179.4 1207.4 180 1204.2 180.8 1201.4 182.4 1199 184.4 1198.4 185 1198 185.8 1197.8 186.6L1192.2 210.4C1192.2 210.6 1192 211 1192 211.4 1192 213.6 1193.8 215.4 1196 215.4 1197.8 215.4 1199.4 214 1199.8 212.4L1204 195 1204 251 1212 251 1212 215 1216 215 1216 251 1224 251 1224 194.8 1228.2 212.2C1228.6 213.8 1230.2 215.2 1232 215.2 1234.2 215.2 1236 213.4 1236 211.2 1236 210.8 1235.8 210.4 1235.8 210.2Z"/>
        </g>
    </g>
    <g transform="translate(77 211) scale(0.4 0.4)">
        <g transform="translate(-1166 -158) scale(1 1)">
            <path fill="#c72020" d="M1222 169C1222 173.418 1218.42 177 1214 177 1209.58 177 1206 173.418 1206 169 1206 164.582 1209.58 161 1214 161 1218.42 161 1222 164.582 1222 169Z"/>
            <path fill="#c72020" d="M1235.8 210.2 1230.2 186.4C1230 185.6 1229.6 184.8 1229 184.2 1226.6 182.2 1223.8 180.8 1220.6 179.8 1218.4 179.4 1216.2 179 1214 179 1211.8 179 1209.6 179.4 1207.4 180 1204.2 180.8 1201.4 182.4 1199 184.4 1198.4 185 1198 185.8 1197.8 186.6L1192.2 210.4C1192.2 210.6 1192 211 1192 211.4 1192 213.6 1193.8 215.4 1196 215.4 1197.8 215.4 1199.4 214 1199.8 212.4L1204 195 1204 251 1212 251 1212 215 1216 215 1216 251 1224 251 1224 194.8 1228.2 212.2C1228.6 213.8 1230.2 215.2 1232 215.2 1234.2 215.2 1236 213.4 1236 211.2 1236 210.8 1235.8 210.4 1235.8 210.2Z"/>
        </g>
    </g>
    <g transform="translate(98 211) scale(0.4 0.4)">
        <g transform="translate(-1166 -158) scale(1 1)">
            <path fill="#c72020" d="M1222 169C1222 173.418 1218.42 177 1214 177 1209.58 177 1206 173.418 1206 169 1206 164.582 1209.58 161 1214 161 1218.42 161 1222 164.582 1222 169Z"/>
            <path fill="#c72020" d="M1235.8 210.2 1230.2 186.4C1230 185.6 1229.6 184.8 1229 184.2 1226.6 182.2 1223.8 180.8 1220.6 179.8 1218.4 179.4 1216.2 179 1214 179 1211.8 179 1209.6 179.4 1207.4 180 1204.2 180.8 1201.4 182.4 1199 184.4 1198.4 185 1198 185.8 1197.8 186.6L1192.2 210.4C1192.2 210.6 1192 211 1192 211.4 1192 213.6 1193.8 215.4 1196 215.4 1197.8 215.4 1199.4 214 1199.8 212.4L1204 195 1204 251 1212 251 1212 215 1216 215 1216 251 1224 251 1224 194.8 1228.2 212.2C1228.6 213.8 1230.2 215.2 1232 215.2 1234.2 215.2 1236 213.4 1236 211.2 1236 210.8 1235.8 210.4 1235.8 210.2Z"/>
        </g>
    </g>
    <g transform="translate(119 211) scale(0.4 0.4)">
        <g transform="translate(-1166 -158) scale(1 1)">
            <path fill="#c72020" d="M1222 169C1222 173.418 1218.42 177 1214 177 1209.58 177 1206 173.418 1206 169 1206 164.582 1209.58 161 1214 161 1218.42 161 1222 164.582 1222 169Z"/>
            <path fill="#c72020" d="M1235.8 210.2 1230.2 186.4C1230 185.6 1229.6 184.8 1229 184.2 1226.6 182.2 1223.8 180.8 1220.6 179.8 1218.4 179.4 1216.2 179 1214 179 1211.8 179 1209.6 179.4 1207.4 180 1204.2 180.8 1201.4 182.4 1199 184.4 1198.4 185 1198 185.8 1197.8 186.6L1192.2 210.4C1192.2 210.6 1192 211 1192 211.4 1192 213.6 1193.8 215.4 1196 215.4 1197.8 215.4 1199.4 214 1199.8 212.4L1204 195 1204 251 1212 251 1212 215 1216 215 1216 251 1224 251 1224 194.8 1228.2 212.2C1228.6 213.8 1230.2 215.2 1232 215.2 1234.2 215.2 1236 213.4 1236 211.2 1236 210.8 1235.8 210.4 1235.8 210.2Z"/>
        </g>
    </g>



    <svg>
        <g transform="translate(145,85) scale(0.3 0.4)">
        <polygon points="100,125, 50,150 50,50 100,25 " fill="#25c214"/>
        <polygon points="100,125, 50,150 50,50 100,25 " stroke="#000000" stroke-width="4" fill="none"/>
        <polygon points="75,136, 75,37 " stroke="#000000" stroke-width="4" fill="none"/>
        <polygon points="100,80, 50,105 " stroke="#000000" stroke-width="4" fill="none"/>
    </svg>

    <svg>
        <g transform="translate(166,71) scale(0.3 0.4)">
        <polygon points="100,125, 50,150 50,50 100,25 " fill="#f20505"/>
        <polygon points="100,125, 50,150 50,50 100,25 " stroke="#000000" stroke-width="4" fill="none"/>
        <polygon points="75,136, 75,37 " stroke="#000000" stroke-width="4" fill="none"/>
        <polygon points="100,80, 50,105 " stroke="#000000" stroke-width="4" fill="none"/>
    </svg>

    <svg>
        <g transform="translate(187,57) scale(0.3 0.4)">
        <polygon points="100,125, 50,150 50,50 100,25 " fill="#1414c2"/>
        <polygon points="100,125, 50,150 50,50 100,25 " stroke="#000000" stroke-width="4" fill="none"/>
        <polygon points="75,136, 75,37 " stroke="#000000" stroke-width="4" fill="none"/>
        <polygon points="100,80, 50,105 " stroke="#000000" stroke-width="4" fill="none"/>
    </svg>
    <svg>
        <g transform="translate(145,130) scale(0.3 0.4)">
        <polygon points="100,125, 50,150 50,50 100,25 " fill="#14bcc2"/>
        <polygon points="100,125, 50,150 50,50 100,25 " stroke="#000000" stroke-width="4" fill="none"/>
        <polygon points="75,136, 75,37 " stroke="#000000" stroke-width="4" fill="none"/>
        <polygon points="100,80, 50,105 " stroke="#000000" stroke-width="4" fill="none"/>
    </svg>

    <svg>
        <g transform="translate(166,116) scale(0.3 0.4)">
        <polygon points="100,125, 50,150 50,50 100,25 " fill="#c705f2"/>
        <polygon points="100,125, 50,150 50,50 100,25 " stroke="#000000" stroke-width="4" fill="none"/>
        <polygon points="75,136, 75,37 " stroke="#000000" stroke-width="4" fill="none"/>
        <polygon points="100,80, 50,105 " stroke="#000000" stroke-width="4" fill="none"/>
    </svg>

    <svg>
        <g transform="translate(187,102) scale(0.3 0.4)">
        <polygon points="100,125, 50,150 50,50 100,25 " fill="#14c257"/>
        <polygon points="100,125, 50,150 50,50 100,25 " stroke="#000000" stroke-width="4" fill="none"/>
        <polygon points="75,136, 75,37 " stroke="#000000" stroke-width="4" fill="none"/>
        <polygon points="100,80, 50,105 " stroke="#000000" stroke-width="4" fill="none"/>
    </svg>

    <svg>
        <g transform="translate(145,175) scale(0.3 0.4)">
        <polygon points="100,125, 50,150 50,50 100,25 " fill="#c21488"/>
        <polygon points="100,125, 50,150 50,50 100,25 " stroke="#000000" stroke-width="4" fill="none"/>
        <polygon points="75,136, 75,37 " stroke="#000000" stroke-width="4" fill="none"/>
        <polygon points="100,80, 50,105 " stroke="#000000" stroke-width="4" fill="none"/>
    </svg>

    <svg>
        <g transform="translate(166,161) scale(0.3 0.4)">
        <polygon points="100,125, 50,150 50,50 100,25 " fill="#f27f05"/>
        <polygon points="100,125, 50,150 50,50 100,25 " stroke="#000000" stroke-width="4" fill="none"/>
        <polygon points="75,136, 75,37 " stroke="#000000" stroke-width="4" fill="none"/>
        <polygon points="100,80, 50,105 " stroke="#000000" stroke-width="4" fill="none"/>
    </svg>

    <svg>
        <g transform="translate(187,147) scale(0.3 0.4)">
        <polygon points="100,125, 50,150 50,50 100,25 " fill="#9e6a6e"/>
        <polygon points="100,125, 50,150 50,50 100,25 " stroke="#000000" stroke-width="4" fill="none"/>
        <polygon points="75,136, 75,37 " stroke="#000000" stroke-width="4" fill="none"/>
        <polygon points="100,80, 50,105 " stroke="#000000" stroke-width="4" fill="none"/>
    </svg>

    <svg>
        <rect x = "-30" y="200" width="40" height="25" rx="3" fill="#4b2b1c"/>
        <rect x = "-12" y="200" width="4" height="70" fill="brown"/>
    </svg>

    <svg>
        <rect x = "-30" y="120" width="40" height="25" rx="3" fill="#1c454b"/>
        <rect x = "-12" y="200" width="4" height="70" fill="brown"/>
    </svg>

    <g transform="translate(75, 47) scale(2 2)">
    <path d="M8 3.5a.5.5 0 0 0-1 0V9a.5.5 0 0 0 .252.434l3.5 2a.5.5 0 0 0 .496-.868L8 8.71V3.5z"/> <path d="M8 16A8 8 0 1 0 8 0a8 8 0 0 0 0 16zm7-8A7 7 0 1 1 1 8a7 7 0 0 1 14 0z"/> 
    </g>


    <text x="10" y="115" font-size="13" stroke="#000" stroke-width="0.75px" stroke-linejoin="round">Twilight Imperium:</text> -->
    <text x="22" y="130" font-size="13" stroke="#000" stroke-width="0.75px" stroke-linejoin="round">Fourth Edition</text> -->
    <text x="-18" y="217" font-size="15" stroke="#000" stroke-width="0.75px" stroke-linejoin="round">81</text> -->
    <text x="40" y="150" font-size="10" stroke="#000" stroke-width="0.75px" stroke-linejoin="round">60 - 120 mins</text> -->
    
</svg>