  <!-- const house_color_bright = '#FEFAE0'
  const house_color_dark = '#E1CDAC'
  const roof_color = '#BF0603'
  const dark_color = '#001427'
  const semi_dark_color = '#B19E7B'

  const t_first = 115
  const t_sec = 140
  const t_third = 165

  const c_first = t_first + 35
  const c_sec = t_sec + 20
  const c_third = t_third + 12 -->



<svg viewBox="-20 -50 300 300">
  housing + people + icons + 
  <rect x = '-100' y='-100' width='4000' height='2500' rx='3' fill='#0fff50'/>
  <!-- HOUSE -->
  <g transform='translate(17, -35) scale(0.8 0.8)'>
    <polygon points='78,41 0,100, 0,250  150,250 150,100 ' stroke='#FEFAE0' fill='#FEFAE0'/>
    <polygon points='150,250 150,100 225,55, 225,200 ' stroke='#E1CDAC' fill='#E1CDAC'/>
    <polygon points='231,55, 155,105 75,40 150,-5' fill='#BF0603'/>
    <polygon points='231,55, 155,10 ' fill='#BF0603'/>
    <polygon points='77,40, -3,101 ' stroke='#BF0603' stroke-width='3' fill='none'/>

    <rect x = '-30' y='185' width='40' height='25' rx='3' fill='#001427'/>
    <rect x = '-12' y='185' width='4' height='70' fill='#001427'/>
    <text x='-10' y='202' font-size='15' text-anchor='middle' stroke='white'  fill='white' stroke-width='0.75px' stroke-linejoin='round'>RANK</text> 
      
    <g transform='translate(68, 160) scale(0.8 0.87)'>
      <path fill='#001427' d='M8 3.5a.5.5 0 0 0-1 0V9a.5.5 0 0 0 .252.434l3.5 2a.5.5 0 0 0 .496-.868L8 8.71V3.5z'/> 
      <path fill='#001427' d='M8 16A8 8 0 1 0 8 0a8 8 0 0 0 0 16zm7-8A7 7 0 1 1 1 8a7 7 0 0 1 14 0z'/> 
    </g>

    <text x='74' y='115' style='font-size:17;' fill='#001427' font-family="Bahnschrift" text-anchor='middle' 
    font-weight="bold">GAME</text>
    <text x='74' y='140' style='font-size:17;' fill='#001427' font-family="Bahnschrift" text-anchor='middle' 
    font-weight="bold">TITLE</text>

    <text x='69' y='190' style='font-size:13' fill='#001427' font-family="Bahnschrift" text-anchor='end' font-weight="lighter">MIN</text>
    <text x='74' y='190' style='font-size:13' fill='#001427' font-family="Bahnschrift" text-anchor='middle' font-weight="lighter">-</text>
    <text x='79' y='190' style='font-size:13' fill='#001427' font-family="Bahnschrift" text-anchor='start' font-weight="lighter">MAX</text>
  </g>

  <!-- PEOPLE -->
    <!-- die erste Zeile hier war im anderen code nicht nötig, 
    keine Ahnung was da los ist :D Kann aber sein ist leicht anders positioinert hier -->
  <g transform='translate(15 -35) scale(0.8 0.8)'> 

    <g transform='translate(-7 211) scale(0.4 0.4)'>
      <g transform='translate(-1166 -158) scale(1 1)'>
        <path fill='#001427' d='M1222 169C1222 173.418 1218.42 177 1214 177 1209.58 177 1206 173.418 1206 169 1206 164.582 1209.58 161 1214 161 1218.42 161 1222 164.582 1222 169Z'/>
        <path fill='#001427' d='M1235.8 210.2 1230.2 186.4C1230 185.6 1229.6 184.8 1229 184.2 1226.6 182.2 1223.8 180.8 1220.6 179.8 1218.4 179.4 1216.2 179 1214 179 1211.8 179 1209.6 179.4 1207.4 180 1204.2 180.8 1201.4 182.4 1199 184.4 1198.4 185 1198 185.8 1197.8 186.6L1192.2 210.4C1192.2 210.6 1192 211 1192 211.4 1192 213.6 1193.8 215.4 1196 215.4 1197.8 215.4 1199.4 214 1199.8 212.4L1204 195 1204 251 1212 251 1212 215 1216 215 1216 251 1224 251 1224 194.8 1228.2 212.2C1228.6 213.8 1230.2 215.2 1232 215.2 1234.2 215.2 1236 213.4 1236 211.2 1236 210.8 1235.8 210.4 1235.8 210.2Z'/>
      </g>
    </g>
    <g transform='translate(14 211) scale(0.4 0.4)'>
      <g transform='translate(-1166 -158) scale(1 1)'>
        <path fill='#001427' d='M1222 169C1222 173.418 1218.42 177 1214 177 1209.58 177 1206 173.418 1206 169 1206 164.582 1209.58 161 1214 161 1218.42 161 1222 164.582 1222 169Z'/>
        <path fill='#001427' d='M1235.8 210.2 1230.2 186.4C1230 185.6 1229.6 184.8 1229 184.2 1226.6 182.2 1223.8 180.8 1220.6 179.8 1218.4 179.4 1216.2 179 1214 179 1211.8 179 1209.6 179.4 1207.4 180 1204.2 180.8 1201.4 182.4 1199 184.4 1198.4 185 1198 185.8 1197.8 186.6L1192.2 210.4C1192.2 210.6 1192 211 1192 211.4 1192 213.6 1193.8 215.4 1196 215.4 1197.8 215.4 1199.4 214 1199.8 212.4L1204 195 1204 251 1212 251 1212 215 1216 215 1216 251 1224 251 1224 194.8 1228.2 212.2C1228.6 213.8 1230.2 215.2 1232 215.2 1234.2 215.2 1236 213.4 1236 211.2 1236 210.8 1235.8 210.4 1235.8 210.2Z'/>
      </g>
    </g>
    <g transform='translate(35 211) scale(0.4 0.4)'>
      <g transform='translate(-1166 -158) scale(1 1)'>
        <path fill='#B19E7B' d='M1222 169C1222 173.418 1218.42 177 1214 177 1209.58 177 1206 173.418 1206 169 1206 164.582 1209.58 161 1214 161 1218.42 161 1222 164.582 1222 169Z'/>
        <path fill='#B19E7B' d='M1235.8 210.2 1230.2 186.4C1230 185.6 1229.6 184.8 1229 184.2 1226.6 182.2 1223.8 180.8 1220.6 179.8 1218.4 179.4 1216.2 179 1214 179 1211.8 179 1209.6 179.4 1207.4 180 1204.2 180.8 1201.4 182.4 1199 184.4 1198.4 185 1198 185.8 1197.8 186.6L1192.2 210.4C1192.2 210.6 1192 211 1192 211.4 1192 213.6 1193.8 215.4 1196 215.4 1197.8 215.4 1199.4 214 1199.8 212.4L1204 195 1204 251 1212 251 1212 215 1216 215 1216 251 1224 251 1224 194.8 1228.2 212.2C1228.6 213.8 1230.2 215.2 1232 215.2 1234.2 215.2 1236 213.4 1236 211.2 1236 210.8 1235.8 210.4 1235.8 210.2Z'/>
      </g>
    </g>
    <g transform='translate(56 211) scale(0.4 0.4)'>
      <g transform='translate(-1166 -158) scale(1 1)'>
        <path fill='#B19E7B' d='M1222 169C1222 173.418 1218.42 177 1214 177 1209.58 177 1206 173.418 1206 169 1206 164.582 1209.58 161 1214 161 1218.42 161 1222 164.582 1222 169Z'/>
        <path fill='#B19E7B' d='M1235.8 210.2 1230.2 186.4C1230 185.6 1229.6 184.8 1229 184.2 1226.6 182.2 1223.8 180.8 1220.6 179.8 1218.4 179.4 1216.2 179 1214 179 1211.8 179 1209.6 179.4 1207.4 180 1204.2 180.8 1201.4 182.4 1199 184.4 1198.4 185 1198 185.8 1197.8 186.6L1192.2 210.4C1192.2 210.6 1192 211 1192 211.4 1192 213.6 1193.8 215.4 1196 215.4 1197.8 215.4 1199.4 214 1199.8 212.4L1204 195 1204 251 1212 251 1212 215 1216 215 1216 251 1224 251 1224 194.8 1228.2 212.2C1228.6 213.8 1230.2 215.2 1232 215.2 1234.2 215.2 1236 213.4 1236 211.2 1236 210.8 1235.8 210.4 1235.8 210.2Z'/>
      </g>
    </g>
    <g transform='translate(77 211) scale(0.4 0.4)'>
      <g transform='translate(-1166 -158) scale(1 1)'>
        <path fill='#B19E7B' d='M1222 169C1222 173.418 1218.42 177 1214 177 1209.58 177 1206 173.418 1206 169 1206 164.582 1209.58 161 1214 161 1218.42 161 1222 164.582 1222 169Z'/>
        <path fill='#B19E7B' d='M1235.8 210.2 1230.2 186.4C1230 185.6 1229.6 184.8 1229 184.2 1226.6 182.2 1223.8 180.8 1220.6 179.8 1218.4 179.4 1216.2 179 1214 179 1211.8 179 1209.6 179.4 1207.4 180 1204.2 180.8 1201.4 182.4 1199 184.4 1198.4 185 1198 185.8 1197.8 186.6L1192.2 210.4C1192.2 210.6 1192 211 1192 211.4 1192 213.6 1193.8 215.4 1196 215.4 1197.8 215.4 1199.4 214 1199.8 212.4L1204 195 1204 251 1212 251 1212 215 1216 215 1216 251 1224 251 1224 194.8 1228.2 212.2C1228.6 213.8 1230.2 215.2 1232 215.2 1234.2 215.2 1236 213.4 1236 211.2 1236 210.8 1235.8 210.4 1235.8 210.2Z'/>
      </g>
    </g>
  </g>

  <!-- ICONS -->
  <g transform='translate(160,110) scale(0.3 0.3)'>
  </g>
  <g transform='translate(190,87) scale(0.3 0.3)'>
  </g>
  <g transform='translate(160,150) scale(0.3 0.3)'>
  </g>
  <g transform='translate(190,132) scale(0.3 0.3)'>
  </g>
  <g transform='translate(160,190) scale(0.3 0.3)'>
  </g>
  <g transform='translate(190,170) scale(0.3 0.3)'>
    <g transform='translate(-990, -570)'>
      <path d="M1080.08 597.589C1076.74 596.068 1073.05 597.208 1069.04 600.931 1065.1 598.762 1053.29 593 1039 593 1024.81 593 1013.06 598.69 1009.04 600.889 1005.05 597.2 1001.38 596.075 998.051 597.589 996.318 598.36 995.003 599.841 994.443 601.653 992.987 606.143 995.149 613.373 1001.05 623.759 1003.05 627.307 1005.4 630.647 1008.06 633.73L1008.1 634.311 1009.13 635.138C1017.8 641.486 1028.26 644.937 1039.01 645 1049.76 644.937 1060.21 641.486 1068.89 635.138L1069.91 634.311 1069.94 633.877C1072.66 630.754 1075.05 627.364 1077.08 623.759 1082.98 613.373 1085.14 606.142 1083.69 601.653 1083.13 599.841 1081.81 598.36 1080.08 597.589ZM1004.53 621.782C997.655 609.687 997.643 604.752 998.248 602.886 998.456 602.141 998.994 601.531 999.707 601.229 1001.38 600.468 1003.59 601.338 1006.12 603.624L1007.6 626.651C1006.53 625.113 1005.49 623.479 1004.53 621.782ZM1064.1 631.198C1056.67 636.174 1047.95 638.885 1039.01 639 1030.06 638.885 1021.34 636.174 1013.91 631.198L1012.28 605.969C1016.11 603.936 1026.67 599 1039 599 1051.34 599 1061.91 603.938 1065.73 605.969ZM1073.6 621.782C1072.6 623.547 1071.52 625.24 1070.4 626.831L1071.89 603.737C1074.47 601.366 1076.72 600.453 1078.42 601.229 1079.14 601.531 1079.68 602.141 1079.88 602.886 1080.49 604.751 1080.48 609.687 1073.6 621.782Z" fill ="#0D2C54"  /><path d="M1020.07 610.805C1020.36 611.872 1021.46 612.504 1022.52 612.217 1022.52 612.217 1022.53 612.217 1022.53 612.217 1033.32 609.275 1044.7 609.275 1055.49 612.217 1056.55 612.508 1057.65 611.88 1057.94 610.814 1058.23 609.749 1057.6 608.649 1056.54 608.359 1056.53 608.357 1056.53 608.356 1056.53 608.355 1045.05 605.23 1032.96 605.23 1021.49 608.354 1020.42 608.641 1019.79 609.739 1020.07 610.805Z" fill ="#0D2C54"  /><path d="M1053 621C1054.11 621 1055 620.105 1055 619 1055 617.895 1054.11 617 1053 617L1025 617C1023.9 617 1023 617.895 1023 619 1023 620.105 1023.9 621 1025 621Z" fill ="#0D2C54"  /><path d="M1055.49 625.783C1044.7 628.725 1033.32 628.725 1022.53 625.783 1021.46 625.495 1020.36 626.125 1020.07 627.191 1019.78 628.257 1020.41 629.355 1021.48 629.644 1021.48 629.645 1021.48 629.645 1021.49 629.646 1027.2 631.195 1033.09 631.987 1039 632 1044.92 631.987 1050.81 631.195 1056.53 629.646 1057.59 629.36 1058.23 628.264 1057.94 627.197 1057.66 626.13 1056.56 625.496 1055.49 625.782 1055.49 625.782 1055.49 625.783 1055.49 625.783Z" fill ="#0D2C54"  />
    </g>
  </g>

</svg>